<?xml version="1.0" standalone="no"?><svg xmlns="http://www.w3.org/2000/svg" viewBox="0 0 1440 320"><path fill="#e7dcf7" fill-opacity="0.9" d="M0,288L34.3,277.3C68.6,267,137,245,206,245.3C274.3,245,343,267,411,240C480,213,549,139,617,117.3C685.7,96,754,128,823,117.3C891.4,107,960,53,1029,64C1097.1,75,1166,149,1234,165.3C1302.9,181,1371,139,1406,117.3L1440,96L1440,320L1405.7,320C1371.4,320,1303,320,1234,320C1165.7,320,1097,320,1029,320C960,320,891,320,823,320C754.3,320,686,320,617,320C548.6,320,480,320,411,320C342.9,320,274,320,206,320C137.1,320,69,320,34,320L0,320Z"></path></svg>