<?xml version="1.0" standalone="no"?><svg xmlns="http://www.w3.org/2000/svg" viewBox="0 0 1440 320"><path fill="#e7dcf7" fill-opacity="0.9" d="M0,160L34.3,176C68.6,192,137,224,206,197.3C274.3,171,343,85,411,80C480,75,549,149,617,165.3C685.7,181,754,139,823,149.3C891.4,160,960,224,1029,261.3C1097.1,299,1166,309,1234,293.3C1302.9,277,1371,235,1406,213.3L1440,192L1440,0L1405.7,0C1371.4,0,1303,0,1234,0C1165.7,0,1097,0,1029,0C960,0,891,0,823,0C754.3,0,686,0,617,0C548.6,0,480,0,411,0C342.9,0,274,0,206,0C137.1,0,69,0,34,0L0,0Z"></path></svg>